<svg xmlns="http://www.w3.org/2000/svg" viewBox="0 0 185.09 209.575" x="0px" y="0px"><title>rectangle3</title><g data-name="Layer 2"><g data-name="Layer 1"><path d="M.61,81.79a3.83,3.83,0,0,1-.12-3.93,27.71,27.71,0,0,1-.34-3.12c0-2.43.11-4.86.17-7.29.14-5,.23-10.07.45-15.09.06-1.45-.6-2.7-.67-4.19l.7-2.34c-.05-1-.59-2,.08-3a1.82,1.82,0,0,0,.05-1.51c-.52-1,.11-2-.19-2.95A2.82,2.82,0,0,1,1,35.93C.09,31.63,1.05,27.32.86,23,.8,21.45.95,19.88,1,18.56L.11,16.27A5.61,5.61,0,0,1,1,13.42L1.39,9c1.35-1.63,2.89-.45,4.68-.75a24.48,24.48,0,0,0,2.72-1.3c1.86-1.14,4-1.37,6-2.22a7.13,7.13,0,0,1,1.92-.27c.64-.08,1.29-.12,1.92-.27a6.23,6.23,0,0,0,1.11-.44c2.19-.32,4.17,0,6.05-.82a4.89,4.89,0,0,1,1.94-.11c1.63,0,3.26,0,5.11,0l1.79-.69L38.32,2a14.17,14.17,0,0,1,7-.65L47.44.46l5.32,0c.81,0,1.63,0,2.44,0A4.17,4.17,0,0,0,57.11.21c.82-.49,1.57.41,2.3-.08a.69.69,0,0,1,.91.09A1.84,1.84,0,0,0,62.59.14c1.08.23,2.13,1.12,3.06,0,1.25,1.1,2.31.38,3.52.06L70.84,1l21.84.77L94.31,1,96,1.6c1.18-.5,2.43-.89,3.59.09,1.5-.36,2.93-.8,4.42.37l4.63.17c.34-.06,1.06-.83,1.86-.11,1-.63,2.19.53,3.18-.37.81,0,1.62-.1,2.43-.08,1.63,0,3.25.14,4.88.19,5.54.16,11.07.28,16.61.46s11.07.4,16.58.6l2.07-.83h5.17A4.17,4.17,0,0,0,163.37,2c.94-.54,1.89.16,2.78-.27a1.39,1.39,0,0,1,1.4-.06c1.16.81,2.51.7,4,1.2.86,1,1.93,2.11,2.9,3.33a16.6,16.6,0,0,1,3,5.59c.42,1.39,1.06,2.69,1.61,4.06.35,3.06.35,3.06,1.77,6.83.21,1.59-.21,3.3.59,4.86a4.62,4.62,0,0,1,.29,1.6,11.57,11.57,0,0,0,.13,2.21c.93,3.06.61,6.21.71,9.51l.6,1.92-.09,11.59.63,1.91c0,.83.07,1.94.08,3a16.19,16.19,0,0,0,.48,4.38,5.93,5.93,0,0,1-.42,4.28c1.12,2.87.33,5.84.5,8.81L185,78.6l-.29,9.28-.54,1.31.3,1a3.68,3.68,0,0,0,0,3.69c.18,3.77-.16,7.64,0,11.89.11.34.37,1,.54,1.73.29,1.18-.3,2.13-.73,3.24a10.87,10.87,0,0,0,.4,1.46,1.94,1.94,0,0,1,0,1.58c-.2.48-.45.92-.64,1.31.49,2,.49,2,0,3.74a2.79,2.79,0,0,0,.06.54c.11.35.25.69.37,1l-.63,1.64c0,1.35-.08,2.82-.14,4.3a13,13,0,0,1-1,5.34,9.57,9.57,0,0,0-.4,2.74c-.45.93-.87,1.92-1.38,2.84-.42.75-1.18,1.22-1.45,2.17a23.22,23.22,0,0,0,1.88,5.1c.81,1.71.59,3.66,1.43,5.39l-.1,3.22c-.33,1.19-1.25,2.24-.35,3.6a1.32,1.32,0,0,1-.08.49c-.48.72-1,1.42-1.47,2.1a6,6,0,0,1-3.14,4.51c-1,.51-2,1.12-3.25,1.83a49,49,0,0,0-5.08-.17,3.86,3.86,0,0,1-2.29-.27,4.9,4.9,0,0,0-1.92-.36c-2.44-.2-4.89-.37-7.28-.54l-2,.71a9.2,9.2,0,0,0-4.69.44,2.2,2.2,0,0,1-2.3-.53c-.18-.06-.34-.16-.47-.14-.64.09-1.26.27-1.9.33a9.24,9.24,0,0,1-1.47-.07l-11.84-.83-1.83.62-6.74-.39-1.79.71-3.41,0-1.75.66L106,165l-2,.68-7.1-.48-1.8.78-10-.65a3.43,3.43,0,0,1-4.07-.15,34.45,34.45,0,0,1-4.68,1.12,35.25,35.25,0,0,1-4.79-.1l-2,.62-1.78-.88a6.93,6.93,0,0,0-.94.1,9.69,9.69,0,0,1-1.39.4,8.91,8.91,0,0,1-1.95-.08,9.34,9.34,0,0,0-3.85.56L58,166c-.36,0-.74-.19-1-.07-1.47.7-3.25.28-4.45,1.29-2.12,0-4.06,0-6,0a5.42,5.42,0,0,0-1.46.49l-4.87-.46-1.83-1L35.48,166c-.25,0-.58.06-.89.13-.62.14-1.23.37-1.87.46-1.27.17-2.59-.08-3.85.38A4.71,4.71,0,0,1,27,167c-1.79-.13-3.58-.32-5.54-.51l-1.72-.91-1.6.25c-1-.27-2.21-.66-3.47-.93-1.11-.23-2.15-.9-3.26-1.18A10.54,10.54,0,0,1,7,161.47c-1.63-1.75-1.82-4.09-2.42-6.34l.5-1.48c-.22-.69-.46-1.5-.74-2.31s-.61-1.62-.87-2.44-.48-1.67-.76-2.66c0-1.06-.06-2.28-.12-3.49-.08-1.54.16-3.08-.47-4.63a7.09,7.09,0,0,1-.1-2.57c0-3.13,0-6.26.13-9.37,0-1.06-.63-2-.32-3s-.25-2,.24-2.9c-.76-1.31-.41-2.72-.43-4.09,0-1.74.05-3.47,0-5.21A19.11,19.11,0,0,0,1,108.17l0-7.47L.43,99.16a2.63,2.63,0,0,1,.18-1c.68-1,.43-2-.11-3.14ZM53.35,10.93c-1.71,0-3.5.11-5.29.05s-3.57-.4-5.28.53a3.12,3.12,0,0,1-1.44.13c-1.63,0-3.26,0-4.89-.07-5.86-.23-11.72-.51-17.58-.73-1.79-.07-3.59-.1-5.37,0-1.12.07-2.21.57-3.33.64a9.91,9.91,0,0,0-3.69,1.26A7.58,7.58,0,0,0,5,14.11c-.1,2.64-.13,5.24,0,7.82L5.54,24l-.1,13.58c.13.93.7,1.83.56,2.95a26.59,26.59,0,0,0,0,3.13q0,3.91,0,7.83l.57,1.71c0,3.42-.08,7.07-.11,10.72A6,6,0,0,0,6.45,66c.71,1.87.5,3.78.5,5.68,0,3.65-.1,7.31-.15,10.9l.69,2.14c0,3-.06,6.17-.09,9.31a4.45,4.45,0,0,0,.06,1.55c.86,2.22.46,4.48.48,6.72,0,1.91,0,3.83-.06,5.55l.48,1.65c-.79,1.17-.34,2.32.11,3.56-.08,9.48-.34,19-1,28.32l-.79,2-.25,7.35a8.69,8.69,0,0,1,.43,1.08c.25,1,.46,2,.7,3.13a7.28,7.28,0,0,0,2.29,2.23c4.2.63,8.6.76,13.2,1.09,1.08-.93,2.67-.45,4-.88a7.12,7.12,0,0,1,3.32-.42,2,2,0,0,0,1,0,17.2,17.2,0,0,1,5.26-.68,5.74,5.74,0,0,0,1.63-.54c3.6.06,7,.87,10.37-.19a5.75,5.75,0,0,1,1.94,0l3.52.21a7.41,7.41,0,0,1,2.2-.72,15.56,15.56,0,0,0,4.26-.68l2.67,1.06,1.55-.67c.71,0,1.53,0,2.34.08a3.39,3.39,0,0,0,2.24-.41l1.92.73c1.86-1.52,4.24-.08,6.15-1.19l8.7.2,1.48-.56,10,.72,1.58-.77,12.16.76,1.24-.44.89.41,1.75-.33,1.48,1,3.32.15,1.82-.59c2.17-.15,4.33.59,6.36-.3,2,1,2,.95,3.7.4a5.51,5.51,0,0,1,.94-.14l2,1c1-1.37,2.23-.11,3.3-.07l1.45-.38,1.79.9,1.86-.67,1.73.9,1.4-.64c1.26.11,2.56.27,3.86.33a6.11,6.11,0,0,0,2.41-.15,9.18,9.18,0,0,1,3.35-.4A6.81,6.81,0,0,0,159,155c1.36-.67,2.51-.15,3.72.38l.94-.26.91.43,1.35-.46c1.47,0,2.94.52,4.55-.07l1.21-1.16,1.54-4.4c.08-2.55.17-5.31.26-8.07a3.74,3.74,0,0,1,.1-.55,6.39,6.39,0,0,0,.77-4.12l-1.52-4.3c0-1.38,0-2.86,0-4.34a17.45,17.45,0,0,0-.6-4.86l.45-1.57a4.67,4.67,0,0,1-.36-1c-.11-1.1-.1-2.21-.24-3.3s-.53-2.13-.61-3.21c-.14-1.83-.12-3.68-.17-5.67-.83-1.26-.76-3-1.21-4.58a24.44,24.44,0,0,1-.43-4.48L169,97.88a5.64,5.64,0,0,1,.61-3.07l-.53-1.65c0-.65,0-1.39,0-2.12q.25-10.76.52-21.53a17.18,17.18,0,0,0-.44-6,4.72,4.72,0,0,1,.29-3.22,12.3,12.3,0,0,0,.43-1.43l-.64-2.12.21-6.53.77-2.07c.2-3.8.46-7.47.57-11.15.13-4.23.13-8.47.18-12.7a1,1,0,0,0-.15-.52c-.47-.74.1-1.35.18-2l-.53-1.5-.12-5c-1-1.22-.58-2.92-1.29-4.23A10.17,10.17,0,0,0,166.13,8l-6.29-.24L158,8.53l-13.1-.29c-.81,0-1.63,0-2.44,0a10,10,0,0,0-2.39.33c-.72.12-1.51-.45-2.29-.54a5.24,5.24,0,0,0-2.84.53l-.93-.4-1.44.5-14.36-.13c-1.13,1.19-2.5.59-3.87-.11a3.1,3.1,0,0,1-1.8.72c-2,0-3.91,0-5.78,0L105,9.74,91.18,9.55l-1.76.76L88,9.65l-1.28.67-2.41.1c-1.34.95-2.84.67-4.29.63-5.86-.15-11.72-.36-17.58-.55a24,24,0,0,0-2.92-.08,18.83,18.83,0,0,0-2.56.55L55,10.3Z"/></g></g></svg>