<svg xmlns="http://www.w3.org/2000/svg" data-name="Layer 1" viewBox="0 0 100 125" x="0px" y="0px"><title>Artboard 226</title><path d="M23,32.44a9.12,9.12,0,0,1,5.61-4,11.59,11.59,0,0,1,1.77-.24l2.16-.06L36.86,28l17.44-.61a1.21,1.21,0,1,0,0-2.41h-.21l-17.44-.6-4.36-.12c-.75,0-1.4-.06-2.23-.05a13.89,13.89,0,0,0-2.56.26A13.3,13.3,0,0,0,17.1,35a15.5,15.5,0,0,0-.27,2.59l0,2.18-.1,8.72C16.64,54.33,16.57,60,16.63,66A13.66,13.66,0,0,0,21,75.51a13.81,13.81,0,0,0,9.71,3.62l17.45-.25,8.72-.19a17.81,17.81,0,0,0,4.83-.56,13,13,0,0,0,4.5-2.32A12.86,12.86,0,0,0,71,67.25a34.67,34.67,0,0,0,0-4.57l-.17-4.36h0a1.24,1.24,0,1,0-2.47,0v.2l-.17,4.36a27.81,27.81,0,0,1-.29,4.1,9.52,9.52,0,0,1-4,6,9.14,9.14,0,0,1-3.31,1.41,15.81,15.81,0,0,1-3.87.16L48,74.35,30.55,74.1a8.73,8.73,0,0,1-8.75-8.46l-.1-17.38-.11-8.72,0-2.17a9.9,9.9,0,0,1,.14-1.72A9,9,0,0,1,23,32.44Z"/><path d="M82.63,30,74.2,21.62l0,0h0a2.53,2.53,0,0,0-3.58,0Q60.15,32.21,49.93,43l-7.19-6.76-.09-.07h0a1.57,1.57,0,0,0-2.2.08L33.21,44.1a1.24,1.24,0,0,0,0,1.72h0a1.27,1.27,0,0,0,0,1.74l.12.14L48.57,64h0a1.94,1.94,0,0,0,2.75.07l.09-.08q15.81-15,31.21-30.39h0A2.59,2.59,0,0,0,82.63,30ZM34.94,45.81h0l.14-.13,6.45-6,7.08,7.53h0a1.93,1.93,0,0,0,2.73.07l.08-.08Q62,37.21,72.35,27l4.79,4.82q-13.78,13.83-27.22,28Q42.47,52.77,34.94,45.81Z"/></svg>